<?xml version="1.0" encoding="utf-8"?>
<!-- Generator: Adobe Illustrator 20.1.0, SVG Export Plug-In . SVG Version: 6.00 Build 0)  -->
<svg version="1.1" id="Layer_1" xmlns="http://www.w3.org/2000/svg" xmlns:xlink="http://www.w3.org/1999/xlink" x="0px" y="0px"
	 viewBox="0 0 1020 233" style="enable-background:new 0 0 1020 233;" xml:space="preserve">
<style type="text/css">
	.st0{fill:#FFFFFF;}
</style>
<g>
	<path d="M2.2,14.9c15.3-3.4,30.7-6.7,46.7-10.3c0,17.8,0,34.9,0,52c0,16.9,0,33.8,0,51.9c3.1-2.7,5.2-4.7,7.4-6.6
		c18.5-15.6,39.5-18.1,61.9-11c11.8,3.8,19.2,12.4,19.6,25c0.8,23.5,0.7,46.9,1,70.4c0.1,6,0.5,12,0.8,17.9
		c0.6,10.9,6.3,17.4,16.9,20c2.3,0.6,4.2,2.4,6.3,3.6c-2.4,0.5-4.8,1.4-7.2,1.5c-19.3,0.1-38.7,0.1-58,0c-1.4,0-2.9-0.8-4.3-1.3
		c1.3-1,2.4-2.5,3.8-2.9c11.6-3.2,18.8-10.5,18.8-22.7c0.1-27.6,0.7-55.3-1-82.8c-1.5-23.3-23.8-33.1-43.7-20.5
		c-10.2,6.4-17.1,15.3-19.2,27.4c-4.8,26.6-3.6,53.4-1.7,80.1c0.6,8.3,5.5,13.3,12.9,16.2c2.3,0.9,4.8,1.5,7,2.5
		c1,0.5,1.8,1.6,2.7,2.4c-1,0.6-2,1.7-3,1.7c-21,0.1-42,0.1-63,0c-1.1,0-2.2-0.9-3.3-1.5c0.9-0.8,1.6-2,2.6-2.3
		c13.3-3.6,18-13.8,19.8-26c0.7-4.4,0.9-9,0.9-13.4c0.1-39.8,0.2-79.6,0-119.5c-0.1-10.6-1.2-21.3-1.7-31.9c-0.4-8-4.6-13-11.9-15.5
		C9.6,18.2,6,17.3,2.4,16.3C2.3,15.8,2.2,15.4,2.2,14.9z"/>
	<path d="M327.2,233.9c0-3.4,0-5.4,0-7.4c0-57.8,0-115.6-0.2-173.4c0-6.1-1.1-12.2-1.6-18.4c-0.9-10.1-7-15.3-16.3-17.6
		c-1.3-0.3-2.7-0.7-4-1c0-0.6-0.1-1.3-0.1-1.9c14.9-3.1,29.7-6.3,45.4-9.6c0,34.1,0,67.4,0,101.6c1.5-0.9,2.3-1.2,2.8-1.7
		c25.8-28.8,84.1-22.8,98.2,25.8c7.1,24.4,7.4,48.7-6,71.5c-12.8,21.8-33.4,30.9-57.5,30.6c-12.9-0.2-25.8-4.5-38.5-7.7
		c-8.1-2-14-0.5-18.6,6.5C330.1,232,329.1,232.5,327.2,233.9z M350.8,168.6C350.8,168.6,350.8,168.6,350.8,168.6
		c0,9.1-0.6,18.3,0.2,27.4c1,13.1,7.3,23.3,20.4,27.5c20,6.4,38.1,2.9,49.4-17.1c2.6-4.6,4.8-9.5,6.3-14.6
		c4.8-16.6,4.9-33.5,2.6-50.4c-1.7-12.2-5.4-23.6-13.2-33.5c-8.1-10.1-18.4-14.6-31.5-13.6c-17.7,1.4-33.3,22.1-34,36.4
		C350.3,143.4,350.8,156,350.8,168.6z"/>
	<path d="M309.2,214.1c4,1.2,2.7,3.4,1.4,5.4c-5.7,8.6-14.4,11.6-24,12.2c-13.1,0.9-24.2-2.6-31.3-17.6c-0.5,1.2-0.7,2.7-1.5,3.7
		c-15.8,20.9-56.4,17.3-70.1,1.9c-11.3-12.8-10.3-44.2,8.2-52.7c9.5-4.4,19.3-8,29-11.9c7.7-3.1,15.5-6.1,23.3-8.8
		c8.3-2.9,11.7-9,11.5-17.2c-0.1-6.5-0.3-13.1-1.7-19.3c-0.9-4.1-3.3-8.4-6.3-11.5c-7.9-8-28.2-8.2-35.9,0
		c-3.2,3.3-4.9,8.6-5.9,13.2c-1.9,8.9-6.2,13-14.5,12.2c-4.9-0.4-8-3.3-8.4-8.3c-0.8-9.3,2.3-17.4,11-21.1
		c7.5-3.2,15.8-5.5,23.9-6.2c10.7-0.9,21.6-0.6,32.3,0.6c18.4,2.1,25.9,8.5,27.2,30.1c1.6,26.9,0.9,53.9,1.1,80.9
		c0,3.2-0.2,6.4,0.2,9.5c0.7,5.8,2.2,11.5,8.6,13.5c6.8,2.1,13.2,0.4,18.3-4.7C307,217,307.9,215.6,309.2,214.1z M255.3,148.5
		c-11.4,5.2-22,10.4-32.9,14.9c-14.8,6.2-22.2,17.1-23.3,32.9c-0.9,12.4,4.3,22.6,13.8,26.4c20.6,8.1,40.8-4.2,42.1-26.1
		c0.9-14.9,0.6-29.9,0.8-44.9C255.8,150.9,255.6,150.1,255.3,148.5z"/>
	<path d="M736.8,213.6c-0.8,1.9-1,2.8-1.4,3.5c-14.3,21.9-55.1,19-69.2,2.1c-10.4-12.5-10.2-34.7,1.3-46.2
		c6.9-6.9,15.8-10.3,24.6-13.8c11-4.3,22-8.6,33-12.7c8.1-3.1,11.6-9,11.2-17.4c-0.3-6.1-0.4-12.3-1.2-18.4
		c-1.3-9.7-7.1-16.1-16.5-17.5c-5.2-0.8-10.7-0.7-15.9,0.1c-9.5,1.6-13.2,6.3-15.1,16c-0.7,3.5-2,7.1-3.9,10.1
		c-2.7,4.5-8.3,5.8-13.8,4c-5.1-1.6-6.1-5.6-6.1-10.3c0-9.6,4.4-16.9,13.2-19.8c8.9-3,18.3-5,27.6-5.6c10.2-0.6,20.7,0.1,30.8,1.8
		c15.8,2.8,21.8,10.6,22.3,28.3c0.7,25.1,0.5,50.3,0.9,75.4c0.1,6,0.3,12,1.1,17.9c0.8,5.9,3.2,11.2,10,12.2c6.8,1,13-0.6,17.3-6.4
		c1.7-2.3,3.1-4.1,5.9-0.8c-4.2,10.2-13,14.3-23,15.3C756.1,232.9,743.5,230.5,736.8,213.6z M737,148.1
		c-11.8,5.5-21.9,10.5-32.2,14.9c-20.6,8.9-23.4,25.5-21.7,42.5c0.7,6.6,3.7,12.4,10,15.8c17.8,9.7,39.2,0.5,41.7-19.5
		C737.1,184.6,736.4,167,737,148.1z"/>
	<path d="M575.4,97.9c-5.6,0-10.9,0-16.3,0c-1.3-3.2-0.9-5.1,2.3-6.5c16-6.7,26.1-19,32.7-34.6c0.7-1.6,2.1-2.8,3.2-4.2
		c0.5,0.3,1,0.5,1.5,0.8c0,10.5,0.2,20.9-0.1,31.4c-0.1,4.1,1.1,5.4,5.3,5.3c11.6-0.3,23.2-0.1,35.1-0.1c0,2.8,0,5,0,7.7
		c-13.4,0-26.5,0-40.1,0c-0.1,2.2-0.2,4-0.2,5.7c0,24.5-0.2,49,0.1,73.4c0.1,9.1,0.8,18.3,1.8,27.4c1.7,15.9,16.2,23.7,31.5,17.1
		c3.8-1.6,7.1-4.1,12.1-7.1c-0.4,2.5-0.2,4.6-1,5.3c-3.6,2.9-7.2,6.2-11.3,8c-12.8,5.6-26.2,6-39.5,2.2
		c-11.2-3.2-17.5-11.7-17.5-23.3c0-30.3,0.2-60.6,0.3-90.9C575.4,109.9,575.4,104.3,575.4,97.9z"/>
	<path d="M814.1,97.8c-6,0-11.3,0-16.4,0c-1.4-3.7-0.2-5.4,3-6.8c15.6-6.7,26.3-18.3,32.2-34.3c0.5-1.4,1.7-2.7,2.6-4
		c0.6,0.2,1.1,0.5,1.7,0.7c0,11.9,0,23.9,0,36.5c13.7,0,26.9,0,40.4,0c0,2.9,0,5.1,0,7.8c-13.3,0-26.4,0-40.1,0
		c-0.1,2.1-0.3,3.9-0.3,5.7c0,24-0.2,48,0.1,72c0.1,9.6,0.7,19.3,1.8,28.9c2,17.4,20.8,25.2,36.1,15.2c1.7-1.1,3.1-2.5,4.6-3.8
		c1.5-1.3,2.9-2.7,4.5-4.2c3,0.9,2.8,2.5,1,4.9c-7.4,9.7-17.7,14.1-29.3,15.1c-6.9,0.6-14,0.3-20.9-0.8c-14.5-2.3-22-11.6-21.9-26.4
		c0.2-33.3,0.6-66.6,0.9-99.9C814.1,102.6,814.1,100.6,814.1,97.8z"/>
	<path d="M474.2,96.2c15.6-2.6,31.3-5.1,47.6-7.8c0,3.2,0,6,0,8.8c-0.3,33.3-0.7,66.6-1,99.9c0,1.7,0,3.3,0.1,5
		c0.6,12.6,4.6,17.9,16.5,22c0.9,0.3,2,0.5,2.8,1c1.4,0.8,2.8,1.8,4.2,2.7c-1.7,0.6-3.4,1.6-5.1,1.6c-8,0.2-16,0.1-24,0.1
		c-12.3,0-24.7,0-37-0.1c-1.4,0-2.8-1-4.1-1.5c1.2-0.9,2.2-2.2,3.6-2.6c14.8-4.5,19.6-9.1,20-24.8c0.6-26.8,0.4-53.6-0.7-80.4
		c-0.6-14.3-8-20.7-20.8-21.7c-0.7-0.1-1.4-0.6-2.1-0.9C474.2,97.2,474.2,96.7,474.2,96.2z"/>
	<path d="M913.7,117.7c-0.1-1.8-0.3-3.4-0.3-5c0-22-0.1-44,0.1-66c0-2.1,1.1-5,2.8-6.3c16.1-12.5,32.3-24.6,48.5-36.9
		c0.6-0.5,1.4-0.9,2.2-1.5c17,13,34,25.8,50.9,38.8c1.1,0.9,2.1,2.7,2.1,4.1c0.1,23.5,0.1,47,0,70.5c0,0.6-0.2,1.3-0.4,2.2
		c-16.3,1.1-32.2-0.5-48-4.7c-2.7-0.7-5.9-0.7-8.6,0C947,117.2,930.7,118.7,913.7,117.7z M960.6,109.3c-4.5-2.9-7.8-4.9-10.8-7.1
		c-10-7.2-18-15.9-20.2-28.6c-1.9-10.7,0.2-20.3,9.7-27c8.8-6.3,17.4-4.6,26,0.9c1.2,0.8,4,0.4,5.5-0.5c14.6-9.4,31.7-2,34.2,15.2
		c1.9,12.4-2.8,23-11.4,31.7c-5.4,5.5-11.9,10-18.6,15.5c13.8,1.8,27.2,3.6,40.6,5.3c0.3-1.8,0.5-2.3,0.5-2.8
		c0-21.3,0.1-42.7-0.1-64c0-1.9-1.7-4.2-3.3-5.5c-10.4-8.3-21.1-16.3-31.7-24.4c-4.5-3.4-8.9-6.8-13.5-10.3
		c-16,12.1-31.7,23.9-47.3,35.9c-1.3,1-2,3.4-2.1,5.1c-0.1,20.3-0.1,40.7-0.1,61c0,1.3,0.3,2.6,0.5,5
		C932.4,113,945.8,111.3,960.6,109.3z M963.7,52.4c-6.7-5.2-13.8-6.5-21.3-2.9c-7.2,3.5-8.5,10.2-8.5,17.3c0,10.6,4,19.8,12.3,26.2
		c20.8,15.9,22.3,16,42.7-0.4c9.6-7.8,13.5-18.8,11.1-31.4c-1.2-6.1-3.9-11.2-10.3-12.9c-6.9-1.8-13.4-0.7-18.9,4.3
		c5.8,8.2,6.9,16.3,2.9,19.8c-2.7,2.4-10.6,2.3-13.2-0.1C956.6,68.6,957.6,61.5,963.7,52.4z M968.6,54.9c-0.8,0-1.6,0-2.3,0.1
		c-1.3,3.4-3.1,6.8-3.7,10.3c-0.6,3.1,1.9,5.3,4.8,4.6c1.8-0.4,4.6-3,4.5-4.4C971.5,61.9,969.8,58.4,968.6,54.9z"/>
	<path d="M519.1,23.5c0,9.7-4.8,14.5-14.3,14.4c-8.7-0.1-13.3-4.8-13.4-13.8c-0.1-8.5,5.6-14.2,13.8-14.2
		C514.7,9.9,519.1,14.2,519.1,23.5z"/>
	<path class="st0" d="M350.8,168.6c0-12.6-0.5-25.3,0.1-37.9c0.7-14.3,16.3-35.1,34-36.4c13.1-1,23.4,3.5,31.5,13.6
		c7.8,9.8,11.5,21.2,13.2,33.5c2.3,17,2.3,33.9-2.6,50.4c-1.5,5.1-3.7,10-6.3,14.6c-11.3,20-29.4,23.5-49.4,17.1
		c-13-4.2-19.3-14.4-20.4-27.5C350.2,187,350.8,177.8,350.8,168.6C350.8,168.6,350.8,168.6,350.8,168.6z"/>
	<path class="st0" d="M255.3,148.5c0.3,1.6,0.5,2.4,0.5,3.1c-0.2,15,0.1,30-0.8,44.9c-1.3,22-21.6,34.2-42.1,26.1
		c-9.5-3.7-14.6-13.9-13.8-26.4c1.1-15.8,8.5-26.8,23.3-32.9C233.3,158.9,243.9,153.7,255.3,148.5z"/>
	<path class="st0" d="M737,148.1c-0.6,19,0,36.6-2.2,53.8c-2.5,20-24,29.2-41.7,19.5c-6.3-3.4-9.3-9.2-10-15.8
		c-1.8-17.1,1-33.6,21.7-42.5C715.1,158.5,725.2,153.5,737,148.1z"/>
	<path class="st0" d="M960.6,109.3c-14.8,2-28.2,3.7-41.9,5.6c-0.3-2.4-0.5-3.7-0.5-5c0-20.3-0.1-40.7,0.1-61c0-1.8,0.8-4.2,2.1-5.1
		c15.6-12,31.3-23.8,47.3-35.9c4.6,3.5,9,6.9,13.5,10.3c10.6,8.1,21.2,16.1,31.7,24.4c1.6,1.3,3.3,3.6,3.3,5.5
		c0.2,21.3,0.1,42.7,0.1,64c0,0.5-0.2,1-0.5,2.8c-13.4-1.8-26.8-3.5-40.6-5.3c6.7-5.5,13.2-10,18.6-15.5
		c8.5-8.7,13.2-19.3,11.4-31.7c-2.6-17.2-19.7-24.6-34.2-15.2c-1.4,0.9-4.2,1.3-5.5,0.5c-8.6-5.6-17.2-7.2-26-0.9
		c-9.5,6.7-11.5,16.3-9.7,27c2.2,12.7,10.2,21.4,20.2,28.6C952.9,104.5,956.1,106.4,960.6,109.3z"/>
	<path class="st0" d="M963.7,52.4c-6,9.1-7.1,16.2-3.1,19.8c2.6,2.4,10.5,2.5,13.2,0.1c4-3.5,2.8-11.5-2.9-19.8
		c5.5-5,12-6.1,18.9-4.3c6.4,1.7,9.1,6.9,10.3,12.9c2.4,12.6-1.4,23.6-11.1,31.4c-20.4,16.5-21.9,16.3-42.7,0.4
		c-8.4-6.4-12.3-15.6-12.3-26.2c0-7.1,1.3-13.9,8.5-17.3C949.8,45.9,956.9,47.2,963.7,52.4z"/>
	<path class="st0" d="M968.6,54.9c1.2,3.5,2.9,7,3.3,10.6c0.1,1.4-2.6,4-4.5,4.4c-3,0.7-5.4-1.5-4.8-4.6c0.7-3.5,2.4-6.9,3.7-10.3
		C967,54.9,967.8,54.9,968.6,54.9z"/>
</g>
</svg>
