<svg xmlns="http://www.w3.org/2000/svg" xmlns:xlink="http://www.w3.org/1999/xlink" viewBox="0 0 149.34 46.17"><defs><style>.cls-1{fill:url(#radial-gradient);}.cls-2{fill:#ed8b00;fill-rule:evenodd;}.cls-3{fill:url(#linear-gradient);}</style><radialGradient id="radial-gradient" cx="148.5" cy="24.53" r="13.85" gradientUnits="userSpaceOnUse"><stop offset="0" stop-color="#fefcf7"/><stop offset="0.9" stop-color="#ed8b00"/></radialGradient><linearGradient id="linear-gradient" x1="0.45" y1="47.77" x2="112.03" y2="26.53" gradientUnits="userSpaceOnUse"><stop offset="0" stop-color="#ed8b00" stop-opacity="0"/><stop offset="0.15" stop-color="#ed8b00" stop-opacity="0.5"/><stop offset="0.5" stop-color="#ed8b00"/></linearGradient></defs><title>Asset 1</title><g id="Layer_2" data-name="Layer 2"><g id="Artwork"><path class="cls-1" d="M114.16,38.85c18.68,0,31.58-12.38,34-14.86a.7.7,0,0,1,1,1,46.12,46.12,0,0,1-3.76,3.44A55.85,55.85,0,0,1,138,33.53a51,51,0,0,1-10.55,4.67,44.85,44.85,0,0,1-13.3,2h-.37Z"/><path class="cls-2" d="M128.56,5.77H127a.48.48,0,0,0-.48.37l-3.36,9.17L123,16l-.2-.64L119.3,6.14a.49.49,0,0,0-.54-.37H115a.27.27,0,0,0-.31.31,1.63,1.63,0,0,0,.17.54l6.18,14.29c-.07,2.51-2.45,3.37-5.13,2.62a4,4,0,0,0-1.05-.2.48.48,0,0,0-.44.47v1.93c0,.34.24.61.67.71a4.39,4.39,0,0,0,1.43.18,6.59,6.59,0,0,0,5.91-4l6.24-16.07a1.58,1.58,0,0,0,.14-.44A.31.31,0,0,0,128.56,5.77ZM60.31,9.08c0-2.21,4.24-2,6.69-.34a1.43,1.43,0,0,0,.65.27c.34,0,.54-.13.54-.62V7.28a.84.84,0,0,0-.51-.88c-4.42-1.84-10.32-.85-10.32,3.94,0,5.4,8.55,4.28,8.55,7.2,0,2.33-4,2.58-7,.34a1,1,0,0,0-.64-.28c-.34,0-.55.14-.55.61v1.32a.86.86,0,0,0,.52.88C62,22.12,69,22.16,69,15.91,69,10.54,60.31,11.76,60.31,9.08ZM67.8,6.45l.05,0ZM25.13,5.39a13,13,0,0,0-5.29,1.05.89.89,0,0,0-.51.82V8.78a.65.65,0,0,0,.57.68c.41,0,.71-.37.91-.51A7.16,7.16,0,0,1,25,7.52c2.07,0,2.38,1.36,2.38,3,0,.78-.27,1-3.23,1.36-1.8.24-5.91,1-5.91,4.75,0,3.06,2.44,4.69,5.3,4.69a5.92,5.92,0,0,0,3.94-1.63l.08.88a.38.38,0,0,0,.34.4H31a.39.39,0,0,0,.41-.4V10C31.38,7.29,29.92,5.39,25.13,5.39Zm2.25,12.29c0,.44-1.15,1.62-2.72,1.62a2.35,2.35,0,0,1-2.48-2.57c0-1.84,1.43-3.54,5.2-3.54ZM5.78,4.78c0-1.57,1.5-2.62,3.39-2.62a7,7,0,0,1,4.35,1.56,1.62,1.62,0,0,0,.92.44c.37,0,.47-.24.47-.55v-2A.56.56,0,0,0,14.54,1,16.44,16.44,0,0,0,9.11.15c-4.52,0-7,2.79-7,5.94,0,6.86,10.59,5.44,10.59,10.09,0,2.82-4.07,4.79-8.79,1.5-.44-.3-.64-.48-1-.48-.58,0-.68.3-.68.62v1.73a.67.67,0,0,0,.4.68c5.71,2.69,13.82,1.12,13.82-5.7C16.55,8.24,5.78,8.64,5.78,4.78Zm73.48.81a6.78,6.78,0,0,0-4.46,1.73V.56A.39.39,0,0,0,74.4.15H71.14a.38.38,0,0,0-.33.41V18.08a1.85,1.85,0,0,0,.61,1.56,8.75,8.75,0,0,0,5.43,1.76c4.48,0,8.12-3.46,8.12-8.69C85,8.64,82.76,5.59,79.26,5.59Zm-2.15,14a3.46,3.46,0,0,1-1.83-.37,1,1,0,0,1-.48-.88V9.15a4.36,4.36,0,0,1,2.62-1c3.08,0,3.4,4,3.4,5.43C80.83,17.34,79.29,19.58,77.12,19.58ZM37.9,5.81H34.64a.38.38,0,0,0-.34.4v14.4a.38.38,0,0,0,.34.41H37.9a.39.39,0,0,0,.4-.41V6.21A.39.39,0,0,0,37.9,5.81ZM36.24,0A1.93,1.93,0,0,0,34,1.9a2,2,0,0,0,2.21,2,2,2,0,0,0,2.14-2A1.91,1.91,0,0,0,36.24,0Zm63.9,5.77H96.89a.38.38,0,0,0-.34.41v9.88c0,2.21-.67,3.4-2.79,3.4A2.46,2.46,0,0,1,91,16.87V6.18a.39.39,0,0,0-.41-.41H87.34a.38.38,0,0,0-.34.41v9.91c0,3.8,3.39,5.23,6.76,5.23s6.79-1.43,6.79-5.64V6.18A.39.39,0,0,0,100.14,5.77ZM113,5.67l.16,0Zm0,0a5.2,5.2,0,0,0-1.5-.17A5.46,5.46,0,0,0,107.45,8l-.07-1.83a.39.39,0,0,0-.41-.41h-3.16a.38.38,0,0,0-.34.41V20.57a.38.38,0,0,0,.34.41h3.26a.4.4,0,0,0,.41-.41V11.41c0-2.92,2.77-3,4.62-2.65a5.27,5.27,0,0,0,1.15.24.49.49,0,0,0,.45-.47V6.38A.76.76,0,0,0,113,5.67Zm-62.5-.25a10.35,10.35,0,0,0-4.87,1.53l-.07-.78a.4.4,0,0,0-.41-.41H42a.39.39,0,0,0-.34.41V20.61A.38.38,0,0,0,42,21h3.27a.4.4,0,0,0,.41-.41V9A7.14,7.14,0,0,1,48.85,7.9c2.25,0,2.39,1.37,2.39,2.53V20.61a.38.38,0,0,0,.33.41h3.28a.4.4,0,0,0,.41-.41V10.08C55.26,7.32,53.79,5.42,50.51,5.42Zm92.2,1,.06,0Zm-.11,0,.06,0Zm-7.37,2.68c0-2.21,4.25-2,6.69-.34a1.45,1.45,0,0,0,.65.27c.34,0,.55-.13.55-.62V7.28a.83.83,0,0,0-.52-.88c-4.41-1.84-10.32-.85-10.32,3.94,0,5.4,8.55,4.28,8.55,7.2,0,2.33-4,2.58-7,.34a1,1,0,0,0-.65-.28c-.34,0-.54.14-.54.61v1.32a.86.86,0,0,0,.5.88c3.76,1.7,10.7,1.73,10.7-4.51C143.89,10.54,135.23,11.76,135.23,9.08ZM132.12.15h-1.61c-.37,0-.44.27-.44.48,0,.41,1,1.43,1,2.84a8.34,8.34,0,0,1-.55,2.39c0,.17.17.3.41.3h.71C133.28,6.16,135.09.15,132.12.15Z"/><path class="cls-3" d="M1.4,45.07a5.79,5.79,0,0,1,.19-1.34,10.84,10.84,0,0,1,3.32-5.24c3.45-3.2,8.73-5.64,15.7-7.25a111.16,111.16,0,0,1,24.51-2.33c18.2,0,32.16,3.66,44.48,6.89,9.1,2.39,17,4.45,24.56,4.45h.21v-1.4h-.21c-7.42,0-15.2-2-24.21-4.4C84,32.89,77.27,31.12,69.88,29.79a137.77,137.77,0,0,0-24.76-2.27,112.55,112.55,0,0,0-24.83,2.36A49.1,49.1,0,0,0,10.93,33a26.34,26.34,0,0,0-7,4.5A12.22,12.22,0,0,0,.23,43.4,7.32,7.32,0,0,0,0,45.12c0,.38,0,1,.71,1S1.4,45.42,1.4,45.07Z"/></g></g></svg>