<?xml version="1.0" encoding="utf-8"?>
<!-- Generator: Adobe Illustrator 20.1.0, SVG Export Plug-In . SVG Version: 6.00 Build 0)  -->
<svg version="1.1" id="Layer_1" xmlns="http://www.w3.org/2000/svg" xmlns:xlink="http://www.w3.org/1999/xlink" x="0px" y="0px"
	 viewBox="0 0 158.3 129" style="enable-background:new 0 0 158.3 129;" xml:space="preserve">
<style type="text/css">
	.st0{fill-rule:evenodd;clip-rule:evenodd;}
	.st1{fill-rule:evenodd;clip-rule:evenodd;fill:#231F20;}
</style>
<path class="st0" d="M107.3,22.5H66.8v105H41.3v-105H0V0h107.3V22.5z"/>
<path class="st1" d="M84,55.5h24v39c0,0,1.8,7.5,9.8,10.5c2.5,0.9,6,0,6,0s6.1-0.7,9.8-11.3c-0.2-10,0-30.8,0-30.8s1.1-6.3,6.8-6.8
	c5.7-0.4,7.5-1.5,7.5-1.5c0,0,8-4.9,9.8-6.8c0.2-0.2,0,47.3,0,47.3s-5.3,30.1-30.8,33c-4.2,0.3-10.5,0-10.5,0s-27.9-1.9-32.3-33
	C84,61.2,84,55.5,84,55.5"/>
</svg>
