<svg xmlns="http://www.w3.org/2000/svg" viewBox="0 0 19.1 16.4"><style type="text/css">  
	.st0{fill:#FFFFFF;}
</style><path class="st0" d="M16.9 2.6c0.8-0.5 1.4-1.3 1.7-2.3 -0.8 0.5-1.6 0.8-2.5 1 -0.7-0.8-1.7-1.3-2.9-1.3 -2.2 0-3.9 1.9-3.9 4.1 0 0.3 0 0.6 0.1 0.9 -3.3-0.2-6.1-1.8-8.1-4.3 -0.3 0.6-0.5 1.3-0.5 2.1 0 1.4 0.7 2.7 1.7 3.4 -0.6 0-1.2-0.2-1.8-0.5v0.1c0 2 1.3 3.7 3.1 4.1 -0.3 0.1-0.7 0.1-1 0.1s-0.5 0-0.7-0.1c0.5 1.6 1.9 2.8 3.7 2.9 -1.3 1.1-3 1.8-4.9 1.8 -0.3 0-0.6 0-0.9-0.1 1.7 1.2 3.8 1.9 6 1.9 7.2 0 11.1-6.3 11.1-11.8 0-0.2 0-0.4 0-0.5 0.8-0.6 1.4-1.3 2-2.1C18.4 2.3 17.6 2.5 16.9 2.6z"/></svg>