<svg xmlns="http://www.w3.org/2000/svg" viewBox="0 0 20 22.7"><style type="text/css">  
	.st0{fill:#FFFFFF;}
</style><path class="st0" d="M4.6 16.5v-3.7h0.7H6v-0.6 -0.6H4 2v0.6 0.6h0.7 0.7v3.7c0 2 0 3.7 0 3.7s0.1 0 0.6 0h0.6L4.6 16.5zM16 16.2c0-0.1 0-0.9 0-1 0.1-0.3 0.3-0.4 0.6-0.4 0.2 0 0.4 0.1 0.5 0.3 0.1 0.1 0.1 0.2 0.1 0.7v0.5h-0.6C16.1 16.3 16.1 16.3 16 16.2L16 16.2zM17.1 20.2c0.6-0.2 1-0.6 1.1-1.1 0-0.1 0.1-0.4 0.1-0.6v-0.4h-0.6 -0.6v0.4c0 0.4-0.1 0.6-0.2 0.7 -0.2 0.1-0.5 0.2-0.7 0s-0.3-0.4-0.3-1.3v-0.6h1.2 1.2v-0.9c0-1.1 0-1.2-0.2-1.6 -0.3-0.7-1.3-1.1-2-0.8 -0.6 0.2-0.9 0.6-1.1 1.2 0 0.2-0.1 0.4-0.1 1.9 0 1.9 0 2 0.2 2.4C15.5 20 16.4 20.4 17.1 20.2L17.1 20.2zM12.6 19.1c0.1 0 0.1-0.1 0.2-0.2 0-0.1 0.1-0.3 0-1.9 0-1.7 0-1.8-0.1-1.9 -0.1-0.3-0.5-0.3-0.8-0.1l-0.1 0.1V17v1.9l0.1 0.1C12.1 19.2 12.4 19.2 12.6 19.1L12.6 19.1zM13.3 20.2c0.2-0.1 0.4-0.3 0.5-0.5C14 19.3 14 19.3 14 17c0-1.9 0-2.1-0.1-2.3 -0.2-0.7-0.5-0.9-1-0.9 -0.3 0-0.6 0.1-0.9 0.4 -0.1 0.1-0.2 0.2-0.3 0.2 0 0 0-0.6 0-1.4v-1.4h-0.5 -0.5v4.3 4.3h0.5 0.5v-0.3c0-0.2 0-0.3 0-0.3s0.1 0.1 0.3 0.2C12.4 20.2 12.8 20.3 13.3 20.2L13.3 20.2zM7.5 20.2c0.2-0.1 0.5-0.3 0.7-0.5 0.1-0.1 0.2-0.2 0.2-0.2s0 0.1 0 0.3v0.3h0.5 0.5V17v-3.2H8.9 8.4v2.4 2.4l-0.2 0.2C8 19 7.9 19 7.8 19.1c-0.2 0.1-0.3 0-0.4-0.1s-0.1-0.1-0.1-2.7v-2.6H6.8 6.3v2.7c0 3 0 3.1 0.2 3.3C6.6 20.2 7 20.3 7.5 20.2L7.5 20.2zM7.9 22.8c-0.7 0-1.5 0-1.9 0 -2.1-0.1-3.6-0.2-3.9-0.2 -0.4-0.1-0.9-0.4-1.1-0.7 -0.4-0.5-0.7-1.2-0.8-2.2 -0.3-2.3-0.3-5 0-7.2 0.1-1 0.4-1.7 0.9-2.2C1.4 10 1.7 9.9 2 9.8c0.8-0.2 6.9-0.4 10.6-0.3 2.1 0 4.5 0.1 5.1 0.2 0.8 0.1 1.4 0.5 1.7 1.3 0.3 0.6 0.4 1.1 0.5 2.5 0.1 1.1 0.1 1.8 0.1 3.1 0 1.6-0.1 2.9-0.3 3.7 -0.2 0.8-0.5 1.5-1 1.9 -0.4 0.3-0.8 0.4-1.4 0.5 -0.2 0-0.4 0-0.5 0 -0.4 0-2.3 0.1-3.3 0.1C12.1 22.8 9.4 22.8 7.9 22.8zM6 8.7c0 0 0-2.5 0-2.9C6 5.3 6 5 5.6 4.1 5.5 3.8 5.3 3.2 5.2 2.8 4.3-0.1 4.3 0 4.4 0 5 0 5.7 0 5.8 0c0 0 0.2 0.7 0.4 1.6 0.2 0.9 0.4 1.6 0.4 1.6s0.1-0.5 0.3-1.1C7.2 0.8 7.4 0 7.4 0s0.2 0 0.7 0h0.6v0.1c0 0.1-0.4 1.5-0.9 2.9 0 0.2-0.2 0.6-0.3 0.9C7.4 4.2 7.3 4.6 7.2 4.8L7.1 5.1v1.8c0 1.6 0 1.8-0.1 1.8C7.2 8.8 6 8.8 6 8.7zM14 8.8c-0.3 0-0.5-0.2-0.6-0.4 -0.2-0.3-0.2-0.3-0.2-3.3V2.3h0.6 0.6v2.6c0 2.8 0 2.8 0.2 2.8s0.3 0 0.5-0.3l0.2-0.2V4.7 2.2h0.6 0.6v3.2 3.2h-0.1c-0.1 0-1 0-1.1 0 0 0-0.1-0.1-0.1-0.3V8L15 8.2C14.8 8.7 14.4 8.9 14 8.8L14 8.8zM10.9 7.6c0.2-0.2 0.2-0.2 0.2-2 0-1.4 0-1.6 0-1.8 -0.1-0.3-0.2-0.4-0.4-0.4 -0.3-0.1-0.5 0.1-0.6 0.4C10 4 10 7.2 10.1 7.4c0 0.2 0.2 0.3 0.3 0.4C10.6 7.7 10.8 7.7 10.9 7.6L10.9 7.6zM10.4 8.8C9.9 8.7 9.3 8.4 9.1 8 8.9 7.6 8.8 7.3 8.8 5.3c0-1.5 0-1.6 0.1-1.8C9 3 9.3 2.6 9.8 2.4c0.6-0.3 1.2-0.3 1.8 0.1 0.4 0.2 0.6 0.6 0.7 1.1 0.1 0.2 0.1 0.4 0.1 1.9 0 1.9 0 2-0.2 2.4s-0.6 0.7-1 0.9C10.9 8.8 10.6 8.9 10.4 8.8L10.4 8.8z"/></svg>
